<?xml version="1.0" encoding="utf-8"?>
<!-- Generator: Adobe Illustrator 23.0.3, SVG Export Plug-In . SVG Version: 6.00 Build 0)  -->
<svg version="1.1" id="Layer_1" xmlns="http://www.w3.org/2000/svg" xmlns:xlink="http://www.w3.org/1999/xlink" x="0px" y="0px"
	 viewBox="0 0 652 652" style="enable-background:new 0 0 652 652;" xml:space="preserve">
<style type="text/css">
	.st0{fill:url(#SVGID_1_);}
</style>
<linearGradient id="SVGID_1_" gradientUnits="userSpaceOnUse" x1="19.9999" y1="317.6465" x2="631.2511" y2="317.6465">
	<stop  offset="0" style="stop-color:#804D85"/>
	<stop  offset="1" style="stop-color:#41BDBD"/>
</linearGradient>
<path class="st0" d="M610.1,317.7l-46.8-43.8v-0.4h-0.4l-9.5-8.9c-12.2-11.5-28.4-17.9-45.2-17.8H228.1L217,203.3
	c-9.8-38.6-44.6-65.7-84.5-65.7c-6.2,0-11.2,5-11.2,11.2v160.4c0,16.6,4.3,32.8,12.5,47.2c22.8,39.7,65,64.2,110.8,64.3h57.7
	l-33.9,60.1c-2,3.5-1.9,7.7,0.1,11.2c2,3.4,5.7,5.6,9.7,5.6h43.2c39.4-0.1,76.4-19,99.5-50.9c0.3-0.4,0.6-0.9,0.9-1.4l6.9-13.4
	h136.9c0.9,0,1.8,0,2.7,0c26.7-0.9,49.2-17.1,58.6-42.3C636.6,364.4,629.9,335.9,610.1,317.7z M554,296l23.6,22.1h-68.9
	c-6.1,0-11-4.9-11-11c0-6.1,4.9-11,11-11H554z M402.1,434.2c-18.9,25.7-48.9,40.9-80.7,40.9h-24l46.3-82.2h79.7L402.1,434.2z
	 M605.7,381.6c-4.9,13-17.5,27.1-38.3,27.7c-0.6,0-1.3,0-1.9,0H440.2l4.8-9.3c1.4-2.4,1.9-5.2,2-11.4c0.2-7.1-0.4-9.7-1.6-12
	c-1.9-3.8-5.9-6.3-10.2-6.3h-98.1c-4.1,0-7.8,2.2-9.8,5.7l-12.5,22.1h-70.3c-37.7-0.1-72.5-20.2-91.2-53c-6.3-11-9.6-23.4-9.6-36
	V161.1c25.1,4.4,45.2,23.1,51.5,47.8l13.2,51.9c1.3,5,5.8,8.5,10.9,8.5h288.8c6.5,0,12.9,1.4,18.8,4.2h-18.2
	c-18.5,0-33.5,15-33.5,33.5c0,18.5,15,33.5,33.5,33.5h91.8C610.4,354.2,610,370.2,605.7,381.6z M410.7,298H255
	c-6.2,0-11.2,5-11.2,11.2c0,6.2,5,11.2,11.2,11.2h155.7c6.2,0,11.2-5,11.2-11.2C421.9,303.1,416.9,298,410.7,298z M57.5,200.2
	c-6.2,0-11.2,5-11.2,11.2c0,6.2,5,11.2,11.2,11.2h20c6.2,0,11.2-5,11.2-11.2c0-6.2-5-11.2-11.2-11.2H57.5z M90,272H31.2
	c-6.2,0-11.2,5-11.2,11.2c0,6.2,5,11.2,11.2,11.2H90c6.2,0,11.2-5,11.2-11.2C101.2,277.1,96.2,272,90,272z M81.2,343.9H52.5
	c-6.2,0-11.2,5-11.2,11.2c0,6.2,5,11.2,11.2,11.2h28.7c6.2,0,11.2-5,11.2-11.2C92.5,348.9,87.4,343.9,81.2,343.9z"/>
</svg>
